<svg xmlns="http://www.w3.org/2000/svg" width="600" height="600" viewBox="0 0 600 600">
  <title>Shopping Instagram highlights Icon</title>
  <g>
    <rect width="600" height="600" fill="#ffebe6"/>
    <g>
      <g>
        <circle cx="275.859" cy="407.059" r="38.29" fill="#54545b"/>
        <circle cx="275.859" cy="407.059" r="19.145" fill="#fff4cc"/>
      </g>
      <g>
        <circle cx="396.4" cy="407.059" r="38.29" fill="#54545b"/>
        <circle cx="396.4" cy="407.059" r="19.145" fill="#fff4cc"/>
      </g>
      <path d="M130.454,177.359c12.115,6.217,24.624,11.722,36.409,18.57,2.319,1.347,15.958,12.79,11.73,5.044.876,1.6.29,4.037.785,5.859,4.852,17.883,5.876,37.832,8.827,56.12q9.188,56.961,18.6,113.888c.864,5.243,6.876,9.026,11.855,9.026H463.869c15.822,0,15.848-24.59,0-24.59H218.655l11.856,9.027q-10.372-62.953-20.535-125.942c-2.345-14.613-3.025-35.5-7.312-47.4-7.843-21.77-41.023-31.195-59.8-40.832-14.054-7.214-26.509,14-12.411,21.233Z" fill="#79ccc6"/>
      <rect x="230.879" y="183.655" width="230.51" height="177.228" fill="#c1754f"/>
      <path d="M280.026,183.655H242.582v53.73l3.615,4.9,3.7-5.018a1.657,1.657,0,0,1,2.667,0l3.7,5.018,3.7-5.018a1.658,1.658,0,0,1,2.668,0l3.7,5.018,3.7-5.018a1.657,1.657,0,0,1,2.667,0l3.7,5.018,3.615-4.9Z" fill="#ffc736"/>
      <rect x="352.566" y="249.758" width="97.033" height="7.249" fill="#ffc736"/>
      <rect x="352.566" y="266.532" width="97.033" height="7.249" fill="#ffc736"/>
    </g>
  </g>
</svg>
